Coordinates
version=1
nRows=12
nColumns=24
inDegrees=yes

Units are S.I. units (second, meters, Newtons, ...)
Angles are in degrees.

endheader
time	pelvis_tilt	pelvis_list	pelvis_rotation	pelvis_tx	pelvis_ty	pelvis_tz	hip_flexion_r	hip_adduction_r	hip_rotation_r	knee_angle_r	ankle_angle_r	subtalar_angle_r	mtp_angle_r	hip_flexion_l	hip_adduction_l	hip_rotation_l	knee_angle_l	ankle_angle_l	subtalar_angle_l	mtp_angle_l	lumbar_extension	lumbar_bending	lumbar_rotation
      1.10833333	     -0.12165740	     -3.61991187	     -3.57240236	     -0.13239226	      1.05338025	      0.34288348	    -13.48855969	      8.08363830	      2.45497617	     -7.14640068	      8.11675292	     -8.43665044	      2.18055457	     20.07997514	     -1.85438426	     -7.13508579	      4.70001782	      5.34510168	      0.86561275	     -1.96193735	      2.29154961	      7.61253331	      1.41093855
      1.11250000	     -0.10207734	     -3.66611562	     -3.59114310	     -0.12681168	      1.05296412	      0.34280984	    -13.61125930	      8.10564696	      2.44302082	     -7.60502051	      8.09242645	     -8.43878733	      2.18436942	     20.02619845	     -1.84665370	     -7.03101584	      4.55757612	      5.39169974	      0.99425176	     -1.97203669	      2.34295654	      7.59780143	      1.41194353
      1.11666667	     -0.07851716	     -3.69151718	     -3.44692822	     -0.12113314	      1.05249187	      0.34249140	    -13.73931319	      8.13854795	      2.24042894	     -8.04105106	      8.07847908	     -8.37781391	      2.20680059	     20.01431429	     -1.76038293	     -6.84808130	      4.26995485	      5.66837200	      1.49761231	     -2.02426780	      2.22795844	      7.66560104	      1.38541275
      1.12083333	     -0.05439947	     -3.69738079	     -3.44916683	     -0.11537778	      1.05213061	      0.34243630	    -13.86583554	      8.11905578	      2.29034375	     -8.50163442	      8.03443849	     -8.36682895	      2.21126388	     19.95896531	     -1.71198608	     -6.80142262	      3.98656825	      5.65286728	      1.54323682	     -2.03318356	      2.30375370	      7.61986760	      1.39099955
      1.12500000	     -0.04066112	     -3.69809015	     -3.45811797	     -0.10957702	      1.05178003	      0.34238012	    -13.96210393	      8.09129020	      2.30723659	     -9.00358903	      7.97671273	     -8.35542281	      2.21646520	     19.90622887	     -1.66148435	     -6.71856190	      3.66892524	      5.62839540	      1.60007016	     -2.04167496	      2.34864210	      7.57559433	      1.39656528
      1.12916667	     -0.03910750	     -3.70010844	     -3.40859395	     -0.10376253	      1.05140216	      0.34219568	    -14.01469363	      8.07520536	      2.14470696	     -9.54820869	      7.84377731	     -8.27197649	      2.23758172	     19.88192732	     -1.59218259	     -6.58166519	      3.29382155	      5.57458303	      1.74069312	     -2.07090367	      2.29205861	      7.54800911	      1.39596945
      1.13333333	     -0.00606681	     -3.69168081	     -3.41195778	     -0.09789779	      1.05113443	      0.34217703	    -14.10512782	      8.03928535	      2.16297690	    -10.10156628	      7.77688700	     -8.25266658	      2.24402506	     19.79734108	     -1.53989020	     -6.47598451	      2.91723510	      5.52504610	      1.76964582	     -2.07746929	      2.37054660	      7.50319507	      1.40697923
      1.13750000	     -0.00451494	     -3.68159221	     -3.35792716	     -0.09200533	      1.05081734	      0.34196407	    -14.11921624	      8.00550674	      1.93280835	    -10.72042438	      7.58959789	     -8.12472428	      2.27181350	     19.75524271	     -1.45795880	     -6.29343795	      2.51530735	      5.34812204	      1.79274172	     -2.10290856	      2.32684630	      7.46204939	      1.41906109
      1.14166667	      0.04004677	     -3.66830130	     -3.36251029	     -0.08610937	      1.05061697	      0.34195471	    -14.18321124	      7.96252126	      1.93222030	    -11.34783475	      7.50377962	     -8.09498226	      2.28054626	     19.64282263	     -1.40770263	     -6.16677180	      2.11773079	      5.26264146	      1.79421713	     -2.10875192	      2.41341753	      7.40762107	      1.43319844
      1.14583333	      0.06969489	     -3.65309681	     -3.37518593	     -0.08018670	      1.05043846	      0.34191161	    -14.19858578	      7.90976330	      1.85666199	    -12.03796512	      7.37638695	     -8.05122019	      2.29078867	     19.53423053	     -1.35576801	     -6.02887461	      1.72299825	      5.12646653	      1.78554204	     -2.11500100	      2.46228409	      7.34051012	      1.44957810
      1.15000000	      0.05034034	     -3.58867858	     -3.21910349	     -0.07406964	      1.05014704	      0.34125168	    -14.12516972	      7.79791666	      1.29035195	    -12.76298083	      7.14258415	     -7.31184991	      2.50941011	     19.44508871	     -1.15255547	     -5.31667930	      1.43035379	      4.37412681	      0.69853556	     -2.19936940	      2.47998569	      7.27854401	      1.46268304
      1.15416667	      0.06292434	     -3.54075975	     -3.21057606	     -0.06804424	      1.05000780	      0.34110861	    -14.07340476	      7.70300071	      1.07680373	    -13.53458030	      6.91061602	     -7.28148613	      2.55177087	     19.34184587	     -1.05531094	     -5.22434276	      1.04760855	      4.09676250	      0.65507251	     -2.21274152	      2.47876441	      7.22494701	      1.47175483
